<?xml version="1.0" standalone="no"?><!DOCTYPE svg PUBLIC "-//W3C//DTD SVG 1.1//EN" "http://www.w3.org/Graphics/SVG/1.1/DTD/svg11.dtd"><svg t="1744082198423" class="icon" viewBox="0 0 1024 1024" version="1.1" xmlns="http://www.w3.org/2000/svg" p-id="10275" xmlns:xlink="http://www.w3.org/1999/xlink" width="200" height="200"><path d="M664.896 860.064a50.976 50.976 0 0 0 77.056-28.448l0.096-0.352 189.856-670.88a71.168 71.168 0 0 0-48.128-87.68l-0.512-0.128a70.4 70.4 0 0 0-49.504 3.936l0.416-0.192L119.104 406.336a51.328 51.328 0 0 0-6.912 89.216l0.192 0.128 149.248 98.4a31.296 31.296 0 0 0 34.56-52.192l-0.128-0.064-132.192-87.168L860.384 133.184a7.712 7.712 0 0 1 3.36-0.736c0.8 0 1.536 0.128 2.272 0.32h-0.064a8.576 8.576 0 0 1 5.664 10.624v-0.064l-185.504 655.776-132.448-87.392a39.136 39.136 0 0 0-53.472 9.984l-0.096 0.128-72.48 102.528v-205.696l274.368-226.112a31.296 31.296 0 1 0-39.84-48.288l0.032-0.032-282.912 233.152a39.104 39.104 0 0 0-14.272 30.208v290.752a39.136 39.136 0 0 0 71.04 22.656l0.096-0.128 102.016-144.352 126.752 83.616z" p-id="10276" fill="#515151"></path></svg>