<?xml version="1.0" standalone="no"?><!DOCTYPE svg PUBLIC "-//W3C//DTD SVG 1.1//EN" "http://www.w3.org/Graphics/SVG/1.1/DTD/svg11.dtd"><svg t="1744954235933" class="icon" viewBox="0 0 1024 1024" version="1.1" xmlns="http://www.w3.org/2000/svg" p-id="3512" xmlns:xlink="http://www.w3.org/1999/xlink" width="200" height="200"><path d="M863.701333 202.965333a256 256 0 0 1 10.069334 351.402667l-361.813334 362.325333-361.728-362.325333a256 256 0 0 1 361.813334-361.130667 255.914667 255.914667 0 0 1 351.658666 9.728zM220.672 263.338667a170.666667 170.666667 0 0 0-8.192 232.576L512 795.904l299.52-299.946667a170.666667 170.666667 0 0 0-240.896-240.64l-179.285333 179.328-60.373334-60.330666 120.533334-120.618667-3.498667-2.944a170.709333 170.709333 0 0 0-227.328 12.586667z" fill="#ffffff" p-id="3513"></path></svg>