<?xml version="1.0" standalone="no"?><!DOCTYPE svg PUBLIC "-//W3C//DTD SVG 1.1//EN" "http://www.w3.org/Graphics/SVG/1.1/DTD/svg11.dtd"><svg t="1743226970340" class="icon" viewBox="0 0 1024 1024" version="1.1" xmlns="http://www.w3.org/2000/svg" p-id="2683" xmlns:xlink="http://www.w3.org/1999/xlink" width="200" height="200"><path d="M896 608a32 32 0 0 1 31.850667 28.928L928 640v96c0 115.946667-93.312 210.133333-209.450667 213.248l-5.909333 0.085333h-401.28c-116.885333 0-212.138667-92.288-215.274667-207.466666L96 736V640a32 32 0 0 1 63.850667-3.072L160 640v96c0 80.704 64.96 146.602667 146.261333 149.248l5.12 0.085333h401.258667c81.962667 0 148.586667-64.234667 151.274667-144.298666l0.085333-5.034667V640a32 32 0 0 1 32-32zM503.978667 123.370667a32 32 0 0 1 34.752-1.706667l2.624 1.706667 266.666666 192a32 32 0 0 1-34.794666 53.610666l-2.581334-1.685333L522.666667 188.757333l-247.978667 178.56a32 32 0 0 1-42.730667-4.864l-1.92-2.432a32 32 0 0 1 4.842667-42.730666l2.432-1.92 266.666667-192z" fill="#707070" p-id="2684"></path><path d="M522.666667 704a32 32 0 0 1-32-32v-490.666667a32 32 0 0 1 64 0v490.666667a32 32 0 0 1-32 32z" fill="#707070" p-id="2685"></path></svg>