<?xml version="1.0" standalone="no"?><!DOCTYPE svg PUBLIC "-//W3C//DTD SVG 1.1//EN" "http://www.w3.org/Graphics/SVG/1.1/DTD/svg11.dtd"><svg t="1743230237768" class="icon" viewBox="0 0 1024 1024" version="1.1" xmlns="http://www.w3.org/2000/svg" p-id="2653" xmlns:xlink="http://www.w3.org/1999/xlink" width="200" height="200"><path d="M51.402821 708.620142l6.143763 0.102396c28.875688 1.535941 45.924632 20.069627 49.252504 55.498663 1.587139 16.792953 0.76797 33.637105 0.870367 50.481257 0.409584 94.255571 9.062051 102.60085 108.437425 102.754444 144.224847 0.204792 288.552091 0.102396 432.828136 0.102396 62.461595 0 124.92319 0.76797 187.28239-0.460782 64.867903-1.177555 78.896162-15.871389 80.329707-79.100955 0.51198-25.18943-1.228753-50.532455 0.819168-75.619489 2.764694-34.097887 22.06635-52.887564 51.351623-53.604336 29.490065-0.665574 51.761207 17.816914 53.24595 51.198029 2.150317 50.327662 3.583862 101.167305-1.331148 151.136581-6.50215 66.557438-63.434358 110.536544-141.255362 111.970089-88.265402 1.689535-176.582002 0.51198-264.898601 0.511981H511.109922c-116.219526-0.051198-232.592645 0.51198-348.914567-0.204792C50.686049 1022.822445 1.228753 973.928328 0.51198 865.081318c-0.153594-33.688303-1.331149-67.376606 0.767971-100.860117 2.406307-36.555393 25.138232-57.290594 56.317831-55.498663zM513.721022 0.039422c31.1796 1.023961 50.481256 20.939994 52.477979 59.799298 1.023961 20.991192 1.228753 41.982384 1.177555 62.973576l-0.409584 63.024773v419.567847c91.542076-89.596551 228.343209-222.967416 266.22975-259.574006 9.062051-8.806061 18.226498-18.687281 29.438867-24.063074 22.987915-10.956378 46.334216-10.13721 64.867902 9.727625 18.1753 19.301657 20.274419 41.060819 4.966209 63.229566-4.761417 6.911734-10.597992 13.311488-16.690557 19.199261-56.11304 55.089079-299.354875 293.262309-356.491876 347.429824-3.071882 2.918288-6.450952 5.529387-9.881219 7.833298-5.478189 5.631783-12.185131 10.034814-19.608845 12.799508-25.18943 9.420437-46.078226-0.614376-63.946338-18.277697-4.505427-4.556625-9.215645-8.857259-13.721072-13.311487L119.035417 425.136656c-6.041367-5.836575-12.594715-11.468358-17.91931-17.91931-25.496618-30.462827-26.418183-56.317832-3.020684-78.076994 21.81036-20.172023 53.399544-19.711241 80.636896 5.887773 60.413674 56.829812 119.035417 115.451555 178.322734 173.356526l85.398313 82.940807 14.79623-6.348556V100.489955c0-14.693834-0.921565-29.490065 0.716772-44.030305 4.351832-38.398522 23.807083-57.39299 55.703456-56.369029z" fill="#707070" p-id="2654"></path></svg>