<?xml version="1.0" standalone="no"?><!DOCTYPE svg PUBLIC "-//W3C//DTD SVG 1.1//EN" "http://www.w3.org/Graphics/SVG/1.1/DTD/svg11.dtd"><svg t="1744080880833" class="icon" viewBox="0 0 1024 1024" version="1.1" xmlns="http://www.w3.org/2000/svg" p-id="8123" xmlns:xlink="http://www.w3.org/1999/xlink" width="200" height="200"><path d="M522.666667 149.333333a160.021333 160.021333 0 0 1 158.592 138.666667H864a32 32 0 0 1 3.072 63.850667l-3.072 0.149333H810.666667v362.666667a160 160 0 0 1-154.816 159.914666L650.666667 874.666667h-256a160 160 0 0 1-159.914667-154.816L234.666667 714.666667v-362.666667H181.333333a32 32 0 0 1-3.072-63.850667L181.333333 288h182.741334A160.021333 160.021333 0 0 1 522.666667 149.333333zM746.666667 352H298.666667v362.666667a96 96 0 0 0 91.477333 95.893333L394.666667 810.666667h256a96 96 0 0 0 95.893333-91.477334L746.666667 714.666667v-362.666667zM522.666667 213.333333a96.042667 96.042667 0 0 0-93.610667 74.666667h187.242667A96.042667 96.042667 0 0 0 522.666667 213.333333z" fill="#515151" p-id="8124"></path><path d="M448 469.333333a32 32 0 0 1 31.850667 28.928l0.149333 3.072v170.666667a32 32 0 0 1-63.850667 3.072L416 672v-170.666667A32 32 0 0 1 448 469.333333zM597.333333 469.333333a32 32 0 0 1 31.850667 28.928l0.149333 3.072v170.666667a32 32 0 0 1-63.850666 3.072L565.333333 672v-170.666667A32 32 0 0 1 597.333333 469.333333z" fill="#515151" p-id="8125"></path></svg>