<?xml version="1.0" standalone="no"?><!DOCTYPE svg PUBLIC "-//W3C//DTD SVG 1.1//EN" "http://www.w3.org/Graphics/SVG/1.1/DTD/svg11.dtd"><svg t="1744092343165" class="icon" viewBox="0 0 1024 1024" version="1.1" xmlns="http://www.w3.org/2000/svg" p-id="7868" xmlns:xlink="http://www.w3.org/1999/xlink" width="200" height="200"><path d="M772.209778 875.690667l87.153778-1.536 1.820444 102.627555-256.568889 4.494222-4.437333-256.568888 102.570666-1.763556 1.365334 75.776a359.310222 359.310222 0 0 0-228.124445-641.706667L479.971556 54.328889a461.994667 461.994667 0 0 1 292.295111 821.361778z m-568.888889-728.177778L116.053333 149.048889 114.346667 46.421333 370.858667 41.984l4.437333 256.512-102.570667 1.763556-1.365333-75.776a359.310222 359.310222 0 0 0 228.124444 641.706666l-3.925333 102.684445A461.994667 461.994667 0 0 1 203.264 147.512889z" fill="#515151" p-id="7869"></path></svg>